HIERARCHY
ROOT joint_Root
{
	OFFSET 0.0 0.0 0.0
	CHANNELS 6 Xposition Yposition Zposition Zrotation Xrotation Yrotation 
	JOINT Hips
	{
		OFFSET 4.5925 91.4895 -427.239
		CHANNELS 6 Xposition Yposition Zposition Zrotation Xrotation Yrotation 
		JOINT Spine
		{
			OFFSET 15.7357 0.0 0.0
			CHANNELS 6 Xposition Yposition Zposition Zrotation Xrotation Yrotation 
			JOINT Chest
			{
				OFFSET 8.98455 -0.406207 0.0
				CHANNELS 6 Xposition Yposition Zposition Zrotation Xrotation Yrotation 
				JOINT Neck
				{
					OFFSET 16.3773 0.0 0.0
					CHANNELS 6 Xposition Yposition Zposition Zrotation Xrotation Yrotation 
					JOINT Head
					{
						OFFSET 6.45672 0.0 0.0
						CHANNELS 6 Xposition Yposition Zposition Zrotation Xrotation Yrotation 
						End Site
						{
							OFFSET 0.0 0.0 0.0
						}
					}
				}
				JOINT Shoulder_L
				{
					OFFSET 12.9942 -0.242716 4.98039
					CHANNELS 6 Xposition Yposition Zposition Zrotation Xrotation Yrotation 
					JOINT UpperArm_L
					{
						OFFSET 5.34809 0.0 0.0
						CHANNELS 6 Xposition Yposition Zposition Zrotation Xrotation Yrotation 
						JOINT LowerArm_L
						{
							OFFSET 24.3286 1.87007e-05 0.0
							CHANNELS 6 Xposition Yposition Zposition Zrotation Xrotation Yrotation 
							JOINT Hand_L
							{
								OFFSET 22.2916 0.0 0.0
								CHANNELS 6 Xposition Yposition Zposition Zrotation Xrotation Yrotation 
								End Site
								{
									OFFSET 0.0 0.0 0.0
								}
							}
						}
					}
				}
				JOINT Shoulder_R
				{
					OFFSET 12.9945 -0.242716 -4.98039
					CHANNELS 6 Xposition Yposition Zposition Zrotation Xrotation Yrotation 
					JOINT UpperArm_R
					{
						OFFSET -5.34813 0.0 0.0
						CHANNELS 6 Xposition Yposition Zposition Zrotation Xrotation Yrotation 
						JOINT LowerArm_R
						{
							OFFSET -24.3289 0.000322201 0.0
							CHANNELS 6 Xposition Yposition Zposition Zrotation Xrotation Yrotation 
							JOINT Hand_R
							{
								OFFSET -22.2915 -0.000108084 0.0
								CHANNELS 6 Xposition Yposition Zposition Zrotation Xrotation Yrotation 
								End Site
								{
									OFFSET 0.0 0.0 0.0
								}
							}
						}
					}
				}
			}
		}
		JOINT UpperLeg_L
		{
			OFFSET -2.19248 -6.46944 0.0
			CHANNELS 6 Xposition Yposition Zposition Zrotation Xrotation Yrotation 
			JOINT LowerLeg_L
			{
				OFFSET 39.0811 0.0 -1.23785e-05
				CHANNELS 6 Xposition Yposition Zposition Zrotation Xrotation Yrotation 
				JOINT Foot_L
				{
					OFFSET 40.9854 0.0 -1.26872e-05
					CHANNELS 6 Xposition Yposition Zposition Zrotation Xrotation Yrotation 
					JOINT Toes_L
					{
						OFFSET 11.7543 0.0 0.0
						CHANNELS 6 Xposition Yposition Zposition Zrotation Xrotation Yrotation 
						End Site
						{
							OFFSET 0.0 0.0 0.0
						}
					}
				}
			}
		}
		JOINT UpperLeg_R
		{
			OFFSET -2.19251 6.46944 0.0
			CHANNELS 6 Xposition Yposition Zposition Zrotation Xrotation Yrotation 
			JOINT LowerLeg_R
			{
				OFFSET -39.0811 -0.00228153 -0.0401928
				CHANNELS 6 Xposition Yposition Zposition Zrotation Xrotation Yrotation 
				JOINT Foot_R
				{
					OFFSET -40.9854 0.0 0.0
					CHANNELS 6 Xposition Yposition Zposition Zrotation Xrotation Yrotation 
					JOINT Toes_R
					{
						OFFSET -11.7543 0.0 0.0
						CHANNELS 6 Xposition Yposition Zposition Zrotation Xrotation Yrotation 
						End Site
						{
							OFFSET 0.0 0.0 0.0
						}
					}
				}
			}
		}
	}
}
MOTION
Frames:	7
Frame Time:	0.0333333
0.000000 0.000000 0.000000 0.000000 0.000000 -0.000000 5.206850 90.542600 1.572920 88.202000 -25.517700 5.700490 15.735700 0.000005 -0.000001 71.860800 84.140800 -68.310500 8.984550 -0.406207 -0.000000 3.503320 -3.775660 7.210640 16.377300 -0.000001 -0.000001 11.462100 -1.221490 -2.699050 6.456720 -0.000001 -0.000000 6.444220 -0.350628 -1.874630 12.994200 -0.242716 4.980390 -87.078800 -6.898940 -66.983500 5.348090 -0.000007 -0.000001 -40.157300 -54.028300 -75.594500 24.328600 0.000019 0.000005 21.228600 11.531900 -62.769400 22.291600 -0.000001 0.000005 24.546600 5.284730 0.496419 12.994500 -0.242716 -4.980390 87.617200 9.727300 -76.164400 -5.348130 -0.000001 -0.000004 -59.308900 23.878900 -5.014240 -24.328900 0.000322 -0.000009 0.847690 1.908900 -23.976900 -22.291500 -0.000108 -0.000004 16.377600 5.411840 -3.326080 -2.192480 -6.469440 -0.000000 -177.056000 -24.776900 -0.404102 39.081100 -0.000007 -0.000012 -0.192335 0.332473 30.049600 40.985400 -0.000006 -0.000013 0.232437 -5.819720 -73.640900 11.754300 -0.000000 0.000003 -0.000283 -0.002477 -16.670000 -2.192510 6.469440 -0.000001 174.592000 6.622130 173.482000 -39.081100 -0.002282 -0.040193 -0.044903 0.081318 30.658500 -40.985400 0.000008 0.000006 4.144610 20.226600 -69.869100 -11.754300 -0.000006 -0.000006 -0.000094 -0.001563 -16.637300
0.000000 0.000000 0.000000 0.000000 0.000000 -0.000000 4.973390 90.632800 1.359450 88.243300 -24.370400 5.772980 15.735700 0.000005 -0.000001 72.596100 84.165500 -69.167500 8.984550 -0.406207 -0.000000 3.492100 -3.613730 6.961930 16.377300 -0.000001 -0.000001 11.046000 -1.092130 -2.614270 6.456720 -0.000001 -0.000000 6.158570 -0.153609 -2.166670 12.994200 -0.242716 4.980390 -87.373300 -6.360410 -67.505100 5.348090 -0.000007 -0.000001 -40.061400 -52.177500 -72.079200 24.328600 0.000019 0.000005 20.725000 8.589900 -68.460500 22.291600 -0.000001 0.000005 24.383000 5.284660 0.498094 12.994500 -0.242716 -4.980390 87.588700 9.896920 -76.233600 -5.348130 -0.000001 -0.000004 -59.350400 24.065700 -5.560670 -24.328900 0.000322 -0.000009 0.654862 1.474130 -23.990400 -22.291500 -0.000108 -0.000004 16.446000 5.411780 -3.324150 -2.192480 -6.469440 -0.000000 -176.844000 -24.381200 -0.387563 39.081100 -0.000007 -0.000012 -0.188526 0.328851 29.825400 40.985400 -0.000006 -0.000013 0.330082 -5.025260 -73.289500 11.754300 -0.000000 0.000003 -0.000303 -0.002621 -16.675200 -2.192510 6.469440 -0.000001 174.550000 7.860460 173.881000 -39.081100 -0.002282 -0.040193 -0.070219 0.126242 30.215500 -40.985400 0.000008 0.000006 3.770320 20.429300 -69.494900 -11.754300 -0.000006 -0.000006 -0.014503 -0.017316 -16.563700
0.000000 0.000000 0.000000 0.000000 0.000000 -0.000000 4.725650 90.714200 1.154200 88.346300 -23.022600 5.863280 15.735700 0.000005 -0.000001 73.157500 84.175100 -69.864100 8.984550 -0.406207 -0.000000 3.498460 -3.493790 6.688190 16.377300 -0.000001 -0.000001 10.482700 -0.858183 -2.600710 6.456720 -0.000001 -0.000000 5.762220 0.110099 -2.385030 12.994200 -0.242716 4.980390 -87.769700 -5.556510 -68.089700 5.348090 -0.000007 -0.000001 -39.049000 -49.410300 -67.076100 24.328600 0.000019 0.000005 20.183100 5.630680 -75.057100 22.291600 -0.000001 0.000005 24.275000 5.279850 0.630335 12.994500 -0.242716 -4.980390 87.562100 10.079300 -76.327300 -5.348130 -0.000001 -0.000004 -59.300000 24.486300 -6.139580 -24.328900 0.000322 -0.000009 0.473438 1.072340 -23.870400 -22.291500 -0.000108 -0.000004 16.529200 5.413630 -3.385830 -2.192480 -6.469440 -0.000000 -176.732000 -23.764600 -0.424384 39.081100 -0.000007 -0.000012 -0.184833 0.325123 29.618600 40.985400 -0.000006 -0.000013 0.429205 -4.225720 -72.933200 11.754300 -0.000000 0.000003 -0.000294 -0.002559 -16.673000 -2.192510 6.469440 -0.000001 174.431000 9.218270 174.295000 -39.081100 -0.002282 -0.040193 -0.096490 0.174132 29.816400 -40.985400 0.000008 0.000006 3.270680 20.541900 -69.120800 -11.754300 -0.000006 -0.000006 -0.000109 -0.001818 -16.647700
0.000000 0.000000 0.000000 0.000000 0.000000 -0.000000 4.477740 90.803500 0.941665 88.436700 -21.599400 5.954740 15.735700 0.000005 -0.000001 73.908800 84.186800 -70.742800 8.984550 -0.406207 -0.000000 3.510080 -3.335970 6.428980 16.377300 -0.000001 -0.000001 9.833120 -0.652402 -2.447140 6.456720 -0.000001 -0.000000 5.242690 0.455892 -2.664780 12.994200 -0.242716 4.980390 -88.227400 -4.521970 -68.569300 5.348090 -0.000007 -0.000001 -37.822800 -45.147400 -61.364200 24.328600 0.000019 0.000005 19.424200 2.888270 -81.869900 22.291600 -0.000001 0.000005 24.294300 5.286030 0.460545 12.994500 -0.242716 -4.980390 87.537400 10.242300 -76.403300 -5.348130 -0.000001 -0.000004 -59.181100 25.086500 -6.689090 -24.328900 0.000322 -0.000009 0.376821 0.862300 -23.665000 -22.291500 -0.000108 -0.000004 16.523700 5.413650 -3.386540 -2.192480 -6.469440 -0.000000 -176.572000 -23.287300 -0.444943 39.081100 -0.000007 -0.000012 -0.176527 0.313594 29.376100 40.985400 -0.000006 -0.000013 0.570341 -3.247160 -72.545200 11.754300 -0.000000 0.000003 -0.000279 -0.002447 -16.668900 -2.192510 6.469440 -0.000001 174.336000 10.502200 174.739000 -39.081100 -0.002282 -0.040193 -0.118125 0.215720 29.375200 -40.985400 0.000008 0.000006 2.866560 20.541500 -68.770000 -11.754300 -0.000006 -0.000006 -0.000041 -0.000683 -16.601600
0.000000 0.000000 0.000000 0.000000 0.000000 -0.000000 4.225220 90.869600 0.735385 88.503800 -20.085600 6.019020 15.735700 0.000005 -0.000001 74.797300 84.193900 -71.785800 8.984550 -0.406207 -0.000000 3.534290 -3.152430 6.115030 16.377300 -0.000001 -0.000001 8.994550 -0.521239 -2.146480 6.456720 -0.000001 -0.000000 4.715660 0.752639 -2.763160 12.994200 -0.242716 4.980390 -88.803100 -3.128500 -69.053500 5.348090 -0.000007 -0.000001 -36.253000 -39.525300 -55.386900 24.328600 0.000019 0.000005 18.812300 0.672529 -88.026800 22.291600 -0.000001 0.000005 23.684000 5.300530 0.056629 12.994500 -0.242716 -4.980390 87.486700 10.480700 -76.434000 -5.348130 -0.000001 -0.000004 -59.005400 25.923400 -7.174990 -24.328900 0.000322 -0.000009 0.295639 0.686248 -23.381900 -22.291500 -0.000108 -0.000004 16.591300 5.414350 -3.409510 -2.192480 -6.469440 -0.000000 -176.388000 -22.832500 -0.553281 39.081100 -0.000007 -0.000012 -0.171857 0.306700 29.263900 40.985400 -0.000006 -0.000013 0.732799 -2.157300 -72.225500 11.754300 -0.000000 0.000003 -0.000279 -0.002450 -16.669100 -2.192510 6.469440 -0.000001 174.216000 11.898300 175.175000 -39.081100 -0.002282 -0.040193 -0.146868 0.271253 28.970000 -40.985400 0.000008 0.000006 2.189760 20.565500 -68.352800 -11.754300 -0.000006 -0.000006 -0.000032 -0.000531 -16.595400
0.000000 0.000000 0.000000 0.000000 0.000000 -0.000000 3.979190 90.937700 0.525369 88.562700 -18.507500 6.107410 15.735700 0.000005 -0.000001 75.863100 84.195100 -73.008900 8.984550 -0.406207 -0.000000 3.575730 -2.936300 5.794780 16.377300 -0.000001 -0.000001 8.144080 -0.445577 -1.724610 6.456720 -0.000001 -0.000000 4.015000 0.887695 -2.788590 12.994200 -0.242716 4.980390 -89.369400 -1.687950 -69.512200 5.348090 -0.000007 -0.000001 -35.193200 -32.071400 -49.367900 24.328600 0.000019 0.000005 18.598600 -1.011470 -93.003700 22.291600 -0.000001 0.000005 22.953900 5.313710 -0.316031 12.994500 -0.242716 -4.980390 87.469300 10.618400 -76.512200 -5.348130 -0.000001 -0.000004 -59.019100 26.431800 -7.409040 -24.328900 0.000322 -0.000009 0.255796 0.601058 -23.138400 -22.291500 -0.000108 -0.000004 16.438600 5.412890 -3.361200 -2.192480 -6.469440 -0.000000 -176.178000 -22.388800 -0.641427 39.081100 -0.000007 -0.000012 -0.169808 0.304585 29.140100 40.985400 -0.000006 -0.000013 0.917780 -0.961737 -71.893400 11.754300 -0.000000 0.000003 -0.000298 -0.002584 -16.673800 -2.192510 6.469440 -0.000001 174.089000 13.461300 175.628000 -39.081100 -0.002282 -0.040193 -0.164742 0.308122 28.607800 -40.985400 0.000008 0.000006 1.865080 20.639300 -68.075900 -11.754300 -0.000006 -0.000006 -0.044074 -0.052651 -16.540100
0.000000 0.000000 0.000000 0.000000 0.000000 -0.000000 3.769410 91.004700 0.328905 88.685200 -16.921400 6.130630 15.735700 0.000005 -0.000001 76.496100 84.167100 -73.841700 8.984550 -0.406207 -0.000000 3.651740 -2.815780 5.393710 16.377300 -0.000001 -0.000001 7.000520 -0.429137 -1.202480 6.456720 -0.000001 -0.000000 3.399870 1.100370 -2.693890 12.994200 -0.242716 4.980390 -90.003500 0.009706 -69.803900 5.348090 -0.000007 -0.000001 -33.861300 -23.176500 -43.420100 24.328600 0.000019 0.000005 18.045000 -1.889820 -95.779900 22.291600 -0.000001 0.000005 22.092100 5.329450 -0.772609 12.994500 -0.242716 -4.980390 87.466800 10.750600 -76.657300 -5.348130 -0.000001 -0.000004 -59.062300 26.954900 -7.781170 -24.328900 0.000322 -0.000009 0.177104 0.426870 -22.653900 -22.291500 -0.000108 -0.000004 16.306700 5.413190 -3.371030 -2.192480 -6.469440 -0.000000 -176.133000 -21.885600 -0.824530 39.081100 -0.000007 -0.000012 -0.163590 0.295534 28.966600 40.985400 -0.000006 -0.000013 1.100620 0.125237 -71.540700 11.754300 -0.000000 0.000003 -0.000271 -0.002388 -16.666800 -2.192510 6.469440 -0.000001 173.917000 14.923800 175.974000 -39.081100 -0.002282 -0.040193 -0.175214 0.331565 28.298800 -40.985400 0.000008 0.000006 1.639270 20.581000 -67.878500 -11.754300 -0.000006 -0.000006 -0.000000 -0.000000 -16.573800
